<?xml version="1.0" standalone="no"?>
<!DOCTYPE svg PUBLIC "-//W3C//DTD SVG 20010904//EN"
 "http://www.w3.org/TR/2001/REC-SVG-20010904/DTD/svg10.dtd">
<svg version="1.0" xmlns="http://www.w3.org/2000/svg"
 width="1280.000000pt" height="640.000000pt" viewBox="0 0 1280.000000 640.000000"
 preserveAspectRatio="xMidYMid meet">
<metadata>
Created by potrace 1.15, written by Peter Selinger 2001-2017
</metadata>
<g transform="translate(0.000000,640.000000) scale(0.100000,-0.100000)"
fill="#000000" stroke="none">
<path d="M5240 6295 c-24 -45 -40 -57 -40 -32 0 7 -5 18 -11 24 -17 17 -42
-19 -69 -102 -27 -83 -57 -145 -70 -145 -5 0 -11 -9 -15 -19 -5 -18 -9 -16
-40 18 -49 54 -135 76 -200 51 -23 -9 -30 -5 -68 34 -55 58 -138 82 -188 55
-16 -8 -26 -5 -51 16 -47 40 -103 65 -144 65 l-37 0 6 -59 5 -59 -34 20 c-26
15 -43 18 -74 13 -22 -4 -70 -2 -108 4 -133 22 -463 39 -572 30 -100 -8 -233
-40 -244 -58 -5 -8 28 -28 74 -44 12 -4 11 -6 -2 -6 -51 -2 18 -89 96 -122
l54 -22 -20 -28 -21 -28 -31 24 c-23 18 -54 26 -121 35 -119 15 -140 24 -163
71 l-20 39 -6 -35 c-7 -34 -8 -35 -42 -29 -38 7 -111 -1 -133 -16 -12 -7 -8
-17 23 -54 l37 -45 -28 -7 c-48 -10 -53 -13 -53 -28 0 -15 9 -23 94 -79 28
-17 51 -37 53 -43 2 -5 -14 -18 -34 -28 -34 -17 -36 -19 -18 -27 11 -4 35 -8
53 -8 53 -1 36 -16 -34 -29 -90 -17 -96 -23 -40 -39 40 -12 46 -16 36 -29 -9
-10 -34 -14 -88 -14 -54 0 -106 -9 -185 -31 -89 -26 -121 -31 -174 -26 -60 4
-65 3 -73 -18 -6 -16 -28 -29 -74 -45 -74 -26 -84 -40 -30 -40 47 0 36 -16
-35 -47 -31 -14 -50 -28 -44 -30 7 -3 -12 -25 -45 -51 l-57 -47 38 -3 c36 -3
38 -5 32 -32 l-6 -28 90 28 c50 15 107 37 126 49 34 20 35 20 35 1 0 -14 -11
-22 -42 -31 -60 -16 -61 -17 -37 -50 l21 -29 -29 -28 -30 -27 -59 17 c-66 18
-151 23 -174 9 -11 -8 -12 -20 -4 -70 6 -34 9 -61 8 -61 -1 0 -21 7 -44 15
-23 8 -55 16 -71 17 -20 2 -43 17 -73 49 -52 55 -71 60 -191 43 -111 -16 -153
-29 -206 -62 -58 -37 -101 -84 -134 -143 -28 -52 -75 -192 -75 -224 0 -52 -10
-62 -63 -69 -28 -4 -128 -32 -221 -62 -222 -72 -258 -75 -450 -35 -82 17 -152
29 -154 26 -3 -3 3 -23 13 -46 22 -48 148 -168 217 -207 27 -15 48 -30 48 -33
0 -3 -29 -14 -65 -24 -36 -9 -67 -21 -70 -25 -7 -11 96 -22 131 -15 52 11 3
-12 -54 -25 -52 -12 -79 -30 -46 -30 14 0 8 -10 -21 -40 -29 -29 -36 -43 -27
-49 8 -5 -9 -19 -49 -41 -92 -52 -94 -60 -15 -60 36 0 66 -2 66 -4 0 -1 -4
-16 -9 -32 -5 -16 -12 -41 -15 -55 l-6 -26 94 -5 c114 -6 122 -10 99 -48 -20
-35 -53 -60 -151 -116 l-74 -42 36 -12 c64 -21 45 -50 -76 -120 -51 -30 -116
-78 -144 -106 -49 -48 -94 -119 -94 -146 0 -7 -30 -41 -67 -75 l-68 -62 74 6
c62 5 73 4 69 -8 -3 -8 -11 -53 -19 -101 -13 -84 -14 -88 -39 -88 -35 0 -166
-34 -218 -57 l-44 -19 63 -54 c35 -30 77 -66 95 -80 l32 -26 -54 -89 c-54 -88
-64 -115 -43 -115 6 0 63 18 126 40 64 22 119 40 122 40 4 0 15 -14 25 -31 10
-17 29 -35 42 -41 13 -6 24 -15 24 -20 0 -5 -32 -53 -70 -106 -85 -117 -129
-205 -137 -272 l-6 -51 54 24 c30 13 83 43 119 65 64 41 65 41 76 20 11 -20 6
-26 -52 -71 -117 -88 -153 -164 -97 -206 16 -11 32 -24 37 -29 20 -16 161 5
212 32 59 31 59 31 91 6 14 -11 40 -20 57 -20 l31 0 -25 -20 c-14 -10 -59 -38
-100 -61 -122 -68 -174 -99 -200 -120 l-25 -20 106 3 c68 2 105 -1 102 -7 -2
-5 -34 -28 -70 -50 -68 -41 -193 -154 -193 -174 0 -6 12 -11 26 -11 19 0 25
-4 20 -15 -4 -12 0 -15 17 -13 12 1 50 -1 85 -5 l63 -8 -6 -30 c-6 -27 -5 -29
17 -25 12 3 41 8 63 11 22 3 48 8 57 11 16 5 17 2 2 -38 -8 -24 -21 -69 -29
-101 -13 -58 -13 -58 8 -51 12 3 26 10 31 15 21 19 23 7 5 -28 -10 -21 -19
-53 -19 -72 l0 -34 58 7 c31 3 71 9 88 12 30 6 31 4 38 -33 10 -60 19 -70 51
-53 15 8 48 34 74 58 46 44 46 44 126 46 61 1 90 7 122 24 23 12 47 22 53 22
14 0 12 -50 -5 -145 -8 -44 -14 -86 -15 -94 0 -22 150 -9 237 21 l73 24 0 -66
c0 -37 2 -69 5 -71 12 -13 180 13 259 41 102 34 107 35 81 17 -16 -13 -15 -14
21 -20 154 -24 538 -31 607 -11 15 5 17 1 11 -21 -6 -23 -4 -25 17 -21 13 3
50 7 81 10 l57 6 -25 -55 c-13 -31 -24 -57 -24 -60 0 -8 105 27 216 71 l111
43 38 -19 c46 -24 94 -25 201 -6 44 7 106 14 139 16 33 1 74 2 90 3 24 2 31
-2 33 -20 5 -33 46 -71 86 -79 33 -6 113 9 171 31 18 7 17 5 -4 -18 -14 -15
-22 -27 -18 -27 18 0 115 45 163 75 64 41 70 42 77 14 5 -20 11 -21 68 -16 72
6 181 56 247 113 42 35 43 36 63 18 19 -17 19 -18 -3 -41 -12 -12 -19 -25 -17
-28 3 -2 57 6 120 19 62 13 115 23 116 22 1 -1 -2 -19 -7 -41 -21 -88 -20 -88
73 -48 46 21 105 38 135 41 l53 5 -7 -42 -7 -41 42 0 c59 0 117 16 256 71 124
48 135 48 135 2 0 -18 6 -23 28 -23 15 0 42 4 60 9 28 8 38 6 68 -14 43 -29
98 -41 133 -29 30 11 67 63 81 114 8 31 16 39 49 49 21 6 69 26 105 44 53 27
66 30 71 19 5 -13 8 -12 24 2 10 9 55 32 100 51 80 33 83 33 130 19 62 -18 86
-44 76 -81 -5 -15 -7 -33 -7 -39 1 -6 -14 -19 -33 -30 -36 -19 -45 -32 -22
-31 6 0 69 -1 138 -1 l127 -2 -9 -37 c-14 -60 -12 -63 27 -63 27 0 37 -5 41
-20 7 -24 42 -26 158 -7 44 8 102 12 130 9 27 -2 79 1 116 7 59 11 79 10 205
-15 84 -16 176 -27 234 -28 l95 -1 -3 33 c-3 38 1 38 70 11 29 -12 85 -30 123
-41 39 -10 77 -21 86 -24 13 -3 18 4 23 32 7 33 10 36 34 30 15 -4 96 -9 180
-13 108 -4 152 -9 152 -18 0 -6 -7 -34 -15 -60 -8 -27 -13 -50 -12 -52 2 -1
28 -3 59 -4 l57 -2 -50 -44 c-27 -25 -49 -49 -49 -53 0 -5 16 -12 35 -16 34
-6 35 -7 29 -45 l-7 -39 134 0 c169 0 242 -8 235 -26 -3 -9 7 -15 29 -20 19
-3 35 -12 35 -19 0 -9 19 -11 74 -7 l75 5 20 -34 c12 -19 24 -51 27 -71 l6
-37 38 24 c44 28 71 24 118 -17 40 -34 65 -36 89 -5 16 21 31 25 158 36 92 9
144 18 151 26 7 10 39 14 102 16 92 2 108 9 80 37 -22 22 2 25 79 9 98 -21
341 -39 453 -35 l84 3 19 75 c11 41 20 76 21 77 1 1 26 -10 55 -24 56 -28 147
-41 197 -29 20 5 25 11 21 28 -5 19 -3 20 41 14 26 -4 89 -9 140 -13 l92 -6 0
55 c0 31 3 69 6 86 l6 31 224 -6 224 -5 0 43 c0 53 -26 112 -71 163 l-33 39
30 -7 c16 -4 86 -8 154 -9 94 -1 132 2 155 13 81 41 46 130 -118 293 -60 60
-101 106 -91 103 68 -21 234 -32 308 -19 l38 6 -7 118 -7 119 28 1 c16 0 45 6
64 13 l35 13 -41 21 c-44 22 -59 45 -47 67 5 7 36 43 70 78 l62 66 -70 7 c-45
4 -69 11 -69 19 0 9 9 11 33 5 19 -4 48 -2 68 4 32 10 33 13 31 52 -3 37 0 43
41 77 25 20 57 42 71 48 l27 13 -52 32 c-47 29 -50 33 -33 43 47 27 57 41 60
88 3 34 10 52 24 62 11 7 20 22 20 31 0 26 -46 59 -90 66 -25 4 -45 16 -63 39
l-27 34 83 -1 c89 -2 145 17 172 56 22 30 19 36 -16 36 -21 0 -43 11 -67 31
-41 37 -106 68 -142 70 -34 1 117 39 158 39 59 0 29 51 -42 71 -32 9 -36 13
-36 44 l0 33 -64 7 c-64 7 -65 8 -68 39 -2 22 -9 32 -23 34 -11 2 -33 16 -50
32 -16 15 -39 32 -50 38 -18 10 -18 11 9 12 28 0 28 1 22 42 -8 46 -21 68 -42
68 -25 0 -15 19 11 22 25 3 25 3 -19 59 -51 65 -111 99 -174 99 -23 0 -42 3
-42 6 0 3 9 18 20 34 22 31 20 35 -38 64 -31 16 -33 19 -18 35 17 19 20 63 7
96 -5 11 -5 25 0 31 6 7 4 16 -6 24 -8 7 -15 19 -15 26 0 11 -29 14 -145 14
l-145 0 0 39 c0 22 9 60 19 84 11 25 21 60 23 79 3 31 1 33 -25 31 -28 -2 -28
-1 -13 22 20 30 20 32 -2 37 -15 4 -21 23 -32 92 -7 47 -16 86 -19 86 -4 0
-23 -11 -42 -25 -40 -26 -49 -24 -49 11 l0 23 -32 -19 c-18 -11 -48 -32 -67
-48 -33 -28 -35 -28 -84 -15 -68 17 -70 23 -7 23 l53 0 -6 29 c-4 19 -2 31 6
34 7 3 -3 10 -20 17 -41 15 -41 20 -3 42 31 18 43 39 54 99 l6 36 -51 11 c-28
7 -69 12 -92 12 -40 0 -41 0 -21 19 11 10 26 34 33 52 7 19 17 41 21 50 11 20
-13 29 -77 29 -34 0 -46 5 -59 25 -20 31 -73 64 -127 80 l-41 12 65 6 c36 3
77 11 92 16 l27 11 -24 48 c-34 67 -110 132 -200 173 -42 19 -76 37 -76 40 0
4 16 10 35 13 19 4 51 14 71 22 l36 15 -24 18 c-35 27 -86 52 -148 72 -41 13
-48 17 -28 18 34 1 77 39 80 71 4 33 -20 37 -199 39 -79 0 -143 3 -143 6 0 4
7 19 15 35 l16 30 -38 1 -38 1 34 9 c67 20 131 71 150 121 9 24 7 27 -21 37
-17 6 -73 11 -123 11 -68 0 -96 4 -104 14 -7 8 -26 18 -42 21 -17 4 -44 22
-60 40 -17 18 -41 36 -53 39 -12 3 -27 16 -33 29 -14 30 -163 150 -220 178
-55 27 -147 27 -199 1 -22 -10 -61 -31 -87 -45 -27 -15 -65 -30 -85 -33 -21
-4 -42 -14 -49 -23 -11 -15 -12 -14 -13 1 0 13 -13 18 -61 24 l-60 7 -61 81
c-34 44 -63 83 -66 86 -9 12 -52 -54 -52 -81 0 -28 -2 -29 -44 -29 -42 0 -44
2 -50 33 -6 33 -37 70 -66 79 -10 3 -5 10 18 22 26 14 32 22 32 50 0 31 -3 34
-36 41 -20 3 -47 10 -59 15 l-23 9 19 50 c10 28 15 52 10 55 -5 3 -34 7 -64 8
l-56 2 -3 36 -3 35 -80 7 c-44 3 -91 11 -105 16 -40 16 -150 -25 -388 -143
-118 -58 -218 -105 -223 -105 -5 0 -9 16 -9 35 0 33 -2 35 -34 35 -46 0 -170
-18 -231 -33 -44 -11 -54 -10 -85 6 -20 10 -48 16 -65 14 -47 -6 -248 -67
-272 -82 -16 -11 -30 -12 -55 -4 -18 5 -51 7 -73 3 -29 -4 -53 0 -85 15 -25
11 -54 21 -64 21 -11 0 -41 14 -67 30 -55 36 -329 162 -329 152 0 -4 4 -23 10
-41 5 -19 8 -36 6 -38 -2 -2 -25 15 -52 37 -57 47 -227 135 -232 120 -2 -6
-17 -1 -33 11 l-30 21 -6 -22 c-5 -19 -10 -21 -47 -15 -65 11 -190 102 -213
156 -12 29 -36 38 -48 18 -4 -5 -38 34 -76 87 -37 53 -70 98 -72 100 -1 2 -14
-17 -27 -41z m-1675 -365 c3 -5 1 -10 -4 -10 -6 0 -11 5 -11 10 0 6 2 10 4 10
3 0 8 -4 11 -10z m7510 -4700 c-3 -5 -10 -10 -16 -10 -5 0 -9 5 -9 10 0 6 7
10 16 10 8 0 12 -4 9 -10z"/>
</g>
</svg>
