<?xml version="1.0" encoding="iso-8859-1"?>
<!-- Generator: Adobe Illustrator 19.0.0, SVG Export Plug-In . SVG Version: 6.00 Build 0)  -->
<!-- License: CC0. Made by SVG Repo: https://www.svgrepo.com/svg/289182/mole -->
<svg version="1.1" id="Layer_1" xmlns="http://www.w3.org/2000/svg" xmlns:xlink="http://www.w3.org/1999/xlink" x="0px" y="0px"
	 viewBox="0 0 512 512" style="enable-background:new 0 0 512 512;" xml:space="preserve">
<g>
	<g>
		<path d="M345.704,50.077c-1.416-1.282-2.876-2.551-4.342-3.772c-4.505-3.748-11.197-3.135-14.945,1.369
			c-3.749,4.505-3.136,11.196,1.369,14.945c1.236,1.029,2.468,2.1,3.662,3.182c2.032,1.842,4.582,2.751,7.125,2.751
			c2.891,0,5.771-1.174,7.865-3.484C350.374,60.725,350.045,54.014,345.704,50.077z"/>
	</g>
</g>
<g>
	<g>
		<path d="M227.364,105.566l-6.49-6.489c-4.143-4.145-10.864-4.144-15.008,0.001c-4.144,4.144-4.143,10.864,0.001,15.008l6.49,6.489
			c2.073,2.073,4.787,3.108,7.504,3.108s5.432-1.037,7.504-3.109C231.509,116.429,231.508,109.71,227.364,105.566z"/>
	</g>
</g>
<g>
	<g>
		<path d="M299.152,181.454c-11.377-9.123-26.332-14.266-42.26-14.551c-0.153-0.006-0.304-0.023-0.458-0.023h-0.868
			c-0.132,0-0.259,0.015-0.389,0.02c-15.914,0.259-30.92,5.407-42.329,14.555c-12.299,9.863-19.073,23.163-19.073,37.45
			c0,14.283,6.773,27.582,19.072,37.446c11.377,9.127,26.333,14.271,42.26,14.557c0.154,0.006,0.305,0.023,0.459,0.023h0.868
			c0.132,0,0.26-0.015,0.389-0.02c15.913-0.259,30.92-5.408,42.329-14.561c12.299-9.864,19.073-23.163,19.073-37.446
			C318.225,204.617,311.452,191.316,299.152,181.454z M256.034,249.705c-22.631-0.159-41.037-13.971-41.037-30.8
			c0-16.829,18.406-30.64,40.968-30.799c22.631,0.159,41.037,13.971,41.037,30.799C297.002,235.734,278.597,249.546,256.034,249.705
			z"/>
	</g>
</g>
<g>
	<g>
		<path d="M306.133,99.078c-4.142-4.143-10.862-4.144-15.008-0.001l-6.49,6.489c-4.144,4.143-4.145,10.862-0.001,15.008
			c2.071,2.073,4.788,3.109,7.504,3.109c2.717,0,5.432-1.037,7.504-3.108l6.49-6.489
			C310.276,109.942,310.277,103.223,306.133,99.078z"/>
	</g>
</g>
<g>
	<g>
		<path d="M261.589,208.293h-11.178c-5.86,0-10.612,4.752-10.612,10.612s4.751,10.612,10.612,10.612h11.178
			c5.86,0,10.612-4.752,10.612-10.612S267.449,208.293,261.589,208.293z"/>
	</g>
</g>
<g>
	<g>
		<path d="M501.388,475.462h-18.501c-2.201-14.09-8.764-27.091-19.043-37.383c-12.817-12.817-29.859-19.875-47.986-19.875
			c-6.963,0-13.51-2.71-18.427-7.619c-4.922-4.929-7.631-11.478-7.631-18.439v-91.498l7.948,4.589
			c1.67,0.965,3.495,1.423,5.293,1.423c3.669,0,7.236-1.905,9.202-5.31c2.93-5.076,1.189-11.565-3.887-14.495L389.8,276.141v-46.624
			h33.928c5.86,0,10.612-4.752,10.612-10.612s-4.752-10.612-10.612-10.612H389.8v-46.631l18.559-10.718
			c5.075-2.931,6.814-9.421,3.882-14.496c-2.931-5.076-9.419-6.819-14.496-3.882l-8.503,4.91
			c-1.828-20.373-8.257-40.071-18.896-57.571c-3.045-5.007-9.571-6.598-14.581-3.555c-5.008,3.045-6.6,9.573-3.555,14.581
			c10.685,17.576,16.341,37.794,16.364,58.481l-30.214,17.447c-5.075,2.932-6.814,9.421-3.883,14.497
			c1.966,3.404,5.533,5.307,9.201,5.307c1.8,0,3.625-0.459,5.296-1.424l19.602-11.32v34.375H355.15
			c-5.86,0-10.612,4.752-10.612,10.612s4.752,10.612,10.612,10.612h13.426v34.371l-19.602-11.317
			c-5.078-2.931-11.566-1.19-14.497,3.883c-2.931,5.076-1.192,11.566,3.883,14.497l30.216,17.443v103.75
			c0,9.425,2.741,18.43,7.847,26.113H359.73c-5.86,0-10.612,4.752-10.612,10.612c0,5.86,4.752,10.612,10.612,10.612h58.289
			c0.011,0,0.021-0.001,0.032-0.001c11.634,0.535,22.496,5.316,30.781,13.602c6.252,6.257,10.497,13.976,12.444,22.379h-19.068
			v-7.837c0-5.86-4.752-10.612-10.612-10.612s-10.612,4.752-10.612,10.612v7.837h-15.468v-7.837c0-5.86-4.752-10.612-10.612-10.612
			s-10.612,4.752-10.612,10.612v7.837h-33.037c-9.917,0-17.984-8.071-17.984-17.995v-82.6c0-20.626-8.036-40.028-22.632-54.635
			c-14.586-14.588-33.989-22.622-54.636-22.622c-42.606,0-77.269,34.658-77.269,77.258v82.6c0,9.923-8.068,17.995-17.984,17.995
			h-33.037v-7.837c0-5.86-4.752-10.612-10.612-10.612c-5.86,0-10.612,4.752-10.612,10.612v7.837H91.017v-7.837
			c0-5.86-4.752-10.612-10.612-10.612s-10.612,4.752-10.612,10.612v7.837H50.724c1.946-8.402,6.192-16.12,12.439-22.374
			c8.289-8.29,19.152-13.072,30.786-13.607c0.011,0,0.021,0.001,0.032,0.001h58.289c5.86,0,10.612-4.752,10.612-10.612
			s-4.752-10.612-10.612-10.612h-16.736c4.98-7.488,7.891-16.466,7.891-26.113V290.043l33.067-19.09
			c5.076-2.93,6.816-9.42,3.886-14.496c-2.931-5.076-9.42-6.816-14.496-3.886l-22.457,12.965v-36.019h16.281
			c5.86,0,10.612-4.752,10.612-10.612s-4.752-10.612-10.612-10.612h-16.281v-36.022l22.455,12.968
			c1.671,0.965,3.497,1.424,5.296,1.424c3.668,0,7.234-1.904,9.201-5.307c2.931-5.075,1.192-11.565-3.883-14.497l-33.047-19.085
			c0.944-61.276,51.063-111.001,112.551-111.227c16.471,0.06,32.333,3.581,47.143,10.462c1.446,0.673,2.968,0.991,4.465,0.991
			c4.002,0,7.834-2.274,9.63-6.142c2.47-5.315,0.163-11.625-5.151-14.095c-17.365-8.069-35.933-12.245-55.2-12.428
			c-0.151-0.006-0.298-0.022-0.451-0.022c-0.141,0-0.289,0.004-0.434,0.007c-0.145-0.003-0.293-0.007-0.434-0.007
			c-0.15,0-0.294,0.016-0.443,0.022c-68.78,0.655-125.412,53.437-132.234,120.568l-5.78-3.339
			c-5.077-2.931-11.565-1.191-14.497,3.883c-2.931,5.075-1.192,11.565,3.883,14.497l15.706,9.07v48.278H91.138
			c-5.86,0-10.612,4.752-10.612,10.612c0,5.86,4.752,10.612,10.612,10.612h31.063v48.271l-15.706,9.067
			c-5.075,2.932-6.814,9.421-3.883,14.497c1.966,3.404,5.533,5.307,9.201,5.307c1.8,0,3.625-0.46,5.296-1.424l5.092-2.94v89.849
			c0,14.369-11.69,26.059-26.059,26.059c-18.126,0-35.168,7.058-47.99,19.88c-10.276,10.287-16.838,23.288-19.039,37.379H10.612
			C4.752,475.462,0,480.214,0,486.074s4.752,10.612,10.612,10.612h490.776c5.86,0,10.612-4.752,10.612-10.612
			S507.248,475.462,501.388,475.462z M195.566,475.462c2.797-5.394,4.388-11.511,4.388-17.995v-82.6
			c0-30.897,25.141-56.034,56.045-56.034c14.977,0,29.05,5.826,39.625,16.402c10.589,10.597,16.42,24.672,16.42,39.632v82.6
			c0,6.484,1.591,12.601,4.388,17.995H195.566z"/>
	</g>
</g>
</svg>
